<svg xmlns="http://www.w3.org/2000/svg" version="1.1" xmlns:xlink="http://www.w3.org/1999/xlink" viewBox="0 0 200 200"><rect width="200" height="200" fill="url('#gradient')"></rect><defs><linearGradient id="gradient" gradientTransform="rotate(45 0.5 0.5)"><stop offset="0%" stop-color="#697f83"></stop><stop offset="100%" stop-color="#161f2f"></stop></linearGradient></defs><g><g fill="#b1d6bb" transform="matrix(5.064858396489829,0,0,5.064858396489829,36.23066018415153,135.50637510149042)" stroke="#498990" stroke-width="0.65"><path d="M12.24-14.22L12.24-11.57L7.97-11.57L7.97 0L4.54 0L4.54-11.57L0.35-11.57L0.35-14.22L12.24-14.22ZM21.41-14.22L24.83-14.22L24.83-4.91Q24.83-3.33 24.16-2.17Q23.49-1.02 22.23-0.41Q20.97 0.20 19.25 0.20L19.25 0.20Q16.65 0.20 15.16-1.15Q13.66-2.50 13.63-4.84L13.63-4.84L13.63-14.22L17.08-14.22L17.08-4.78Q17.14-2.44 19.25-2.44L19.25-2.44Q20.31-2.44 20.86-3.03Q21.41-3.61 21.41-4.93L21.41-4.93L21.41-14.22Z"></path></g></g></svg>